<svg class="MakeChoice-bgSVG" xmlns="http://www.w3.org/2000/svg" xmlns:xlink="http://www.w3.org/1999/xlink" viewBox="0 0 780 780" fill="none" fill-rule="evenodd">
  <defs>
    <path d="M390 0c215.391 0 390 174.609 390 390S605.391 780 390 780 0 605.391 0 390 174.609 0 390 0zm299.363 456.839c-28.719 0-52 23.281-52 52s23.281 52 52 52 52-23.281 52-52-23.281-52-52-52zm-603.585-.145c-28.719 0-52 23.281-52 52s23.281 52 52 52c28.72 0 52-23.281 52-52s-23.28-52-52-52zM390.143 8.984c-27.062 0-49 21.939-49 49 0 27.063 21.938 49 49 49s49-21.937 49-49c0-27.061-21.938-49-49-49z" id="a"/>
  </defs>
  <g stroke="#A89E9E" stroke-width="2" stroke-dasharray="0,8" stroke-linecap="round">
    <mask id="b" fill="#fff">
      <use xlink:href="#a"/>
    </mask>
    <g mask="url(#b)">
      <path d="M390 723c185.015 0 335-149.985 335-335S575.015 53 390 53 55 202.985 55 388s149.985 335 335 335z"/>
      <path d="M390 710c177.836 0 322-144.164 322-322S567.836 66 390 66 68 210.164 68 388s144.164 322 322 322z"/>
      <path d="M89.259 500.748L386.853 63.856a4 4 0 016.613.002L690.747 500.75a4 4 0 01-3.307 6.25H92.564a4 4 0 01-3.305-6.252z"/>
    </g>
  </g>
</svg>
